<svg width="1600" height="900" viewBox="0 0 1600 900" fill="none" xmlns="http://www.w3.org/2000/svg">
  <rect width="1600" height="900" fill="#050505"/>
  <rect x="0" y="0" width="64" height="900" fill="#0A0A0A" stroke="#202020"/>
  <rect x="64" y="0" width="1536" height="52" fill="#070707" stroke="#202020"/>
  <rect x="12" y="18" width="24" height="24" rx="4" fill="#F5F5F5"/>
  <text x="20" y="35" fill="#050505" font-family="Arial, sans-serif" font-size="18" font-weight="700">M</text>
  <text x="84" y="30" fill="#6B6B6B" font-family="Arial, sans-serif" font-size="12" letter-spacing="3">HOME</text>
  <text x="160" y="30" fill="#6B6B6B" font-family="Arial, sans-serif" font-size="12" letter-spacing="2">&gt;</text>
  <text x="180" y="30" fill="#F2F2F2" font-family="Arial, sans-serif" font-size="14" font-weight="700" letter-spacing="3">MNEMONIC SHARDS</text>

  <rect x="20" y="125" width="20" height="20" rx="4" stroke="#FF2033" stroke-width="2"/>
  <path d="M25 143V132L30 128L35 132V143" stroke="#FF2033" stroke-width="2"/>
  <rect x="20" y="182" width="20" height="20" rx="3" stroke="#666" stroke-width="2"/>
  <path d="M24 189H36M24 195H36" stroke="#666" stroke-width="2"/>
  <path d="M20 251L25 246M25 246L30 251M25 246L36 235" stroke="#666" stroke-width="2" stroke-linecap="round" stroke-linejoin="round"/>
  <circle cx="32" cy="866" r="18" stroke="#4B4B4B" stroke-width="2"/>
  <circle cx="32" cy="861" r="4" fill="#777"/>
  <path d="M24 875C26 869 38 869 40 875" stroke="#777" stroke-width="2" stroke-linecap="round"/>

  <text x="130" y="155" fill="#F1F1F1" font-family="monospace" font-size="52" font-weight="700" letter-spacing="8">SHARDS</text>
  <text x="132" y="182" fill="#676767" font-family="Arial, sans-serif" font-size="14" letter-spacing="3">SECURELY SPLIT YOUR MNEMONIC SEED PHRASE.</text>

  <text x="1240" y="145" fill="#6E6E6E" font-family="Arial, sans-serif" font-size="12" letter-spacing="3">ACTIVE SCHEME</text>
  <text x="1240" y="175" fill="#F0F0F0" font-family="monospace" font-size="28" font-weight="700" letter-spacing="3">2-OF-3</text>
  <line x1="1398" y1="138" x2="1398" y2="180" stroke="#303030"/>
  <text x="1435" y="145" fill="#6E6E6E" font-family="Arial, sans-serif" font-size="12" letter-spacing="3">SECURITY LEVEL</text>
  <path d="M1438 164C1438 160 1441 157 1445 156C1449 157 1452 160 1452 164V168C1452 174 1448 178 1445 180C1442 178 1438 174 1438 168V164Z" stroke="#FF2033" stroke-width="2"/>
  <text x="1460" y="175" fill="#FF2033" font-family="Arial, sans-serif" font-size="20" font-weight="700" letter-spacing="2">HIGH</text>

  <rect x="132" y="245" width="215" height="56" fill="#FF000C"/>
  <text x="180" y="277" fill="#FFF" font-family="Arial, sans-serif" font-size="20" font-weight="700" letter-spacing="3">SPLIT</text>
  <text x="312" y="279" fill="#FFF" font-family="Arial, sans-serif" font-size="28" font-weight="700">+</text>
  <rect x="132" y="320" width="215" height="56" fill="#111" stroke="#2A2A2A"/>
  <text x="180" y="355" fill="#8A8A8A" font-family="Arial, sans-serif" font-size="20" font-weight="700" letter-spacing="3">RECOVER</text>

  <rect x="385" y="245" width="840" height="580" fill="#0B0B0B" stroke="#232323"/>
  <text x="420" y="292" fill="#818181" font-family="Arial, sans-serif" font-size="14" font-weight="700" letter-spacing="3">SELECT SPLITTING STRATEGY</text>

  <rect x="420" y="320" width="245" height="105" fill="#0F0F0F" stroke="#2A2A2A"/>
  <text x="440" y="355" fill="#8E8E8E" font-family="monospace" font-size="26" font-weight="700">2-OF-2</text>
  <text x="440" y="388" fill="#6B6B6B" font-family="Arial, sans-serif" font-size="16" letter-spacing="2">SIMPLE SPLIT. BOTH</text>
  <text x="440" y="412" fill="#6B6B6B" font-family="Arial, sans-serif" font-size="16" letter-spacing="2">REQUIRED.</text>

  <rect x="682" y="320" width="245" height="105" fill="#170809" stroke="#FF2033" stroke-width="2"/>
  <rect x="910" y="330" width="10" height="10" fill="#FF2033"/>
  <text x="702" y="355" fill="#F2F2F2" font-family="monospace" font-size="26" font-weight="700">2-OF-3</text>
  <text x="702" y="388" fill="#D6D6D6" font-family="Arial, sans-serif" font-size="16" letter-spacing="2">STANDARD OVERLAP. ANY</text>
  <text x="702" y="412" fill="#D6D6D6" font-family="Arial, sans-serif" font-size="16" letter-spacing="2">2/3.</text>

  <rect x="945" y="320" width="245" height="105" fill="#0F0F0F" stroke="#2A2A2A"/>
  <text x="965" y="355" fill="#8E8E8E" font-family="monospace" font-size="26" font-weight="700">3-OF-4</text>
  <text x="965" y="388" fill="#6B6B6B" font-family="Arial, sans-serif" font-size="16" letter-spacing="2">ADVANCED. HIGHER</text>
  <text x="965" y="412" fill="#6B6B6B" font-family="Arial, sans-serif" font-size="16" letter-spacing="2">REDUNDANCY.</text>

  <line x1="420" y1="470" x2="1188" y2="470" stroke="#232323"/>
  <text x="420" y="507" fill="#7C7C7C" font-family="Arial, sans-serif" font-size="14" font-weight="700" letter-spacing="3">ORIGINAL MNEMONIC PHRASE</text>
  <text x="1115" y="507" fill="#5F5F5F" font-family="Arial, sans-serif" font-size="14" font-weight="700" letter-spacing="3">0 WORDS</text>
  <rect x="420" y="536" width="768" height="165" fill="#070707" stroke="#2A2A2A"/>
  <text x="440" y="575" fill="#3F3F3F" font-family="Arial, sans-serif" font-size="18" letter-spacing="3">PASTE YOUR SEED PHRASE HERE...</text>
  <line x1="420" y1="748" x2="1188" y2="748" stroke="#232323"/>
  <rect x="420" y="780" width="320" height="52" fill="#FF000C"/>
  <text x="455" y="812" fill="#FFF" font-family="Arial, sans-serif" font-size="18" font-weight="700" letter-spacing="3">GENERATE 2-OF-3 SHARDS</text>

  <rect x="1260" y="245" width="280" height="155" fill="#0F0F0F" stroke="#232323"/>
  <text x="1308" y="282" fill="#F2F2F2" font-family="Arial, sans-serif" font-size="20" font-weight="700" letter-spacing="3">GENERATOR</text>
  <line x1="1285" y1="305" x2="1515" y2="305" stroke="#2A2A2A"/>
  <rect x="1285" y="325" width="95" height="38" fill="#101010" stroke="#383838"/>
  <rect x="1392" y="325" width="108" height="38" fill="#101010" stroke="#383838"/>
  <text x="1316" y="350" fill="#B8B8B8" font-family="Arial, sans-serif" font-size="14" font-weight="700" letter-spacing="2">12 WORDS</text>
  <text x="1422" y="350" fill="#B8B8B8" font-family="Arial, sans-serif" font-size="14" font-weight="700" letter-spacing="2">24 WORDS</text>

  <rect x="1260" y="430" width="280" height="205" fill="#0F0F0F" stroke="#232323"/>
  <text x="1308" y="468" fill="#F2F2F2" font-family="Arial, sans-serif" font-size="20" font-weight="700" letter-spacing="3">VALIDATOR</text>
  <line x1="1285" y1="490" x2="1515" y2="490" stroke="#2A2A2A"/>
  <rect x="1285" y="510" width="230" height="110" fill="#070707" stroke="#2A2A2A"/>
  <text x="1300" y="545" fill="#3F3F3F" font-family="Arial, sans-serif" font-size="16" letter-spacing="2">PASTE PHRASE TO VALIDATE...</text>

  <rect x="1260" y="665" width="280" height="160" fill="#0F0F0F" stroke="#232323"/>
  <text x="1308" y="703" fill="#F2F2F2" font-family="Arial, sans-serif" font-size="20" font-weight="700" letter-spacing="3">LOCAL TOOLS</text>
  <line x1="1285" y1="725" x2="1515" y2="725" stroke="#2A2A2A"/>
  <text x="1285" y="760" fill="#666" font-family="Arial, sans-serif" font-size="13" letter-spacing="2">ALL UTILITIES RUN LOCALLY IN YOUR</text>
  <text x="1285" y="785" fill="#666" font-family="Arial, sans-serif" font-size="13" letter-spacing="2">BROWSER. KEYS AND PHRASES ARE NEVER</text>
  <text x="1285" y="810" fill="#666" font-family="Arial, sans-serif" font-size="13" letter-spacing="2">TRANSMITTED OVER THE NETWORK.</text>
</svg>